<svg xmlns="http://www.w3.org/2000/svg" viewBox="0 0 80 96" role="img" aria-label="Cadenas magique">
  <defs>
    <linearGradient id="body" x1="14" y1="34" x2="66" y2="88" gradientUnits="userSpaceOnUse">
      <stop stop-color="#F7D989"/>
      <stop offset="0.48" stop-color="#B97834"/>
      <stop offset="1" stop-color="#5E331B"/>
    </linearGradient>
    <linearGradient id="rim" x1="16" y1="8" x2="62" y2="58" gradientUnits="userSpaceOnUse">
      <stop stop-color="#FFF2B7"/>
      <stop offset="0.42" stop-color="#C68A42"/>
      <stop offset="1" stop-color="#5C321D"/>
    </linearGradient>
    <filter id="shadow" x="-30%" y="-30%" width="160%" height="170%">
      <feDropShadow dx="0" dy="5" stdDeviation="4" flood-color="#12080A" flood-opacity="0.72"/>
    </filter>
  </defs>
  <g filter="url(#shadow)">
    <path d="M24 39V28C24 16 31 8 40 8s16 8 16 20v11h-9V28c0-7-3-11-7-11s-7 4-7 11v11h-9Z" fill="none" stroke="url(#rim)" stroke-width="8" stroke-linecap="round"/>
    <rect x="13" y="36" width="54" height="48" rx="10" fill="url(#body)" stroke="#FFE6A1" stroke-width="3"/>
    <path d="M21 45h38M21 77h38" stroke="#6E3C20" stroke-width="3" stroke-linecap="round" opacity="0.45"/>
    <circle cx="40" cy="57" r="8" fill="#22141B" stroke="#FFE6A1" stroke-width="2"/>
    <path d="M40 62l-5 12h10l-5-12Z" fill="#22141B"/>
    <path d="M23 42c6 5 28 5 34 0" fill="none" stroke="#FFF2B7" stroke-width="3" stroke-linecap="round" opacity="0.55"/>
    <path d="M60 49l4-4M18 78l-4 4M61 78l5 4" stroke="#FFF0AA" stroke-width="3" stroke-linecap="round" opacity="0.8"/>
  </g>
</svg>
