<svg xmlns="http://www.w3.org/2000/svg" width="1030" height="580" viewBox="0 0 1030 580">
  <rect width="100%" height="100%" fill="#09070a"/>
  <g transform="translate(30 30)">
      <rect x="0" y="0" width="182" height="252" rx="14" fill="#151014"/>
      <image href="mana.svg" x="-4" y="0" width="190" height="252"/>
    </g>
<g transform="translate(228 30)">
      <rect x="0" y="0" width="182" height="252" rx="14" fill="#151014"/>
      <image href="serpent.svg" x="-4" y="0" width="190" height="252"/>
    </g>
<g transform="translate(426 30)">
      <rect x="0" y="0" width="182" height="252" rx="14" fill="#151014"/>
      <image href="typing.svg" x="-4" y="0" width="190" height="252"/>
    </g>
<g transform="translate(624 30)">
      <rect x="0" y="0" width="182" height="252" rx="14" fill="#151014"/>
      <image href="herbarium.svg" x="-4" y="0" width="190" height="252"/>
    </g>
<g transform="translate(822 30)">
      <rect x="0" y="0" width="182" height="252" rx="14" fill="#151014"/>
      <image href="defense.svg" x="-4" y="0" width="190" height="252"/>
    </g>
<g transform="translate(30 300)">
      <rect x="0" y="0" width="182" height="252" rx="14" fill="#151014"/>
      <image href="blackjack.svg" x="-4" y="0" width="190" height="252"/>
    </g>
<g transform="translate(228 300)">
      <rect x="0" y="0" width="182" height="252" rx="14" fill="#151014"/>
      <image href="hundred.svg" x="-4" y="0" width="190" height="252"/>
    </g>
<g transform="translate(426 300)">
      <rect x="0" y="0" width="182" height="252" rx="14" fill="#151014"/>
      <image href="mine.svg" x="-4" y="0" width="190" height="252"/>
    </g>
<g transform="translate(624 300)">
      <rect x="0" y="0" width="182" height="252" rx="14" fill="#151014"/>
      <image href="targets.svg" x="-4" y="0" width="190" height="252"/>
    </g>
<g transform="translate(822 300)">
      <rect x="0" y="0" width="182" height="252" rx="14" fill="#151014"/>
      <image href="slimeTrainer.svg" x="-4" y="0" width="190" height="252"/>
    </g>
</svg>
