<svg xmlns="http://www.w3.org/2000/svg" viewBox="0 0 128 128">
  <defs>
    <radialGradient id="feltGlow" cx="33%" cy="24%" r="74%">
      <stop offset="0" stop-color="#4d3428"/>
      <stop offset="1" stop-color="#130d10"/>
    </radialGradient>
    <linearGradient id="face" x1="28" x2="101" y1="20" y2="108" gradientUnits="userSpaceOnUse">
      <stop offset="0" stop-color="#ff9b86"/>
      <stop offset=".55" stop-color="#a53b35"/>
      <stop offset="1" stop-color="#4d1b22"/>
    </linearGradient>
    <filter id="lift" x="-22%" y="-22%" width="144%" height="144%">
      <feDropShadow dx="0" dy="6" stdDeviation="4" flood-color="#000" flood-opacity=".38"/>
    </filter>
  </defs>
  <circle cx="64" cy="64" r="57" fill="url(#feltGlow)" stroke="#e2b86e" stroke-width="6"/>
  <g filter="url(#lift)">
    <circle cx="64" cy="64" r="43" fill="url(#face)" stroke="#ffe4bd" stroke-width="5"/>
    <circle cx="64" cy="64" r="27" fill="none" stroke="#fff0cf" stroke-width="5" opacity=".92"/>
    <path d="M64 17v17M64 94v17M17 64h17M94 64h17M30 30l12 12M86 86l12 12M98 30 86 42M42 86 30 98" stroke="#ffe4bd" stroke-width="7" stroke-linecap="round"/>
    <path d="M64 32 78 47l-5 38H55l-5-38 14-15Z" fill="none" stroke="#fff2d7" stroke-width="4" stroke-linejoin="round" opacity=".56"/>
    <text x="64" y="74" text-anchor="middle" font-family="Georgia, serif" font-size="29" font-weight="900" fill="#fff8ce">100</text>
  </g>
</svg>
